<svg width="522" height="136" viewBox="0 0 522 136" fill="none" xmlns="http://www.w3.org/2000/svg">
<path d="M453.182 41.165H428.355V95H438.19V81.5987C438.19 80.2968 438.703 79.0388 439.632 78.1198C440.55 77.2009 441.807 76.6757 443.107 76.6757H453.182C457.881 76.6757 462.384 74.805 465.695 71.4902C469.017 68.1645 470.874 63.6573 470.874 58.9641C470.885 56.6339 470.437 54.3147 469.552 52.1595C468.667 50.0044 467.367 48.0352 465.717 46.3833C464.066 44.7314 462.121 43.4186 459.969 42.5215C457.827 41.6244 455.521 41.165 453.182 41.165ZM460.93 58.8219C460.93 59.9268 460.712 61.0208 460.285 62.0382C459.859 63.0556 459.247 63.9855 458.461 64.7622C457.685 65.539 456.756 66.1625 455.74 66.5783C454.723 67.0049 453.631 67.2128 452.527 67.2128H438.146V50.442H452.527C453.631 50.442 454.723 50.6608 455.75 51.0874C456.767 51.5141 457.696 52.1376 458.471 52.9144C459.247 53.702 459.87 54.6319 460.285 55.6493C460.701 56.6777 460.919 57.7717 460.908 58.8766L460.93 58.8219Z" fill="#6D4AFF"/>
<path d="M393.812 94.8032L374 41.0119H385.19L398.227 79.5093C398.74 80.8877 399.112 82.3099 399.33 83.7649H399.44C399.604 82.299 399.975 80.8658 400.543 79.5093L413.624 41.0119H424.89L404.98 94.8032H393.812Z" fill="#6D4AFF"/>
<path d="M474.557 94.8022V41H483.179L508.553 74.3666C509.471 75.5153 510.258 76.7515 510.925 78.0642H511.078C510.903 76.4451 510.826 74.8151 510.837 73.1851V41H521V94.7913H512.378L486.927 61.4247C486.031 60.2651 485.244 59.0289 484.567 57.727H484.479C484.622 59.3461 484.676 60.9762 484.643 62.6062V94.7913H474.557V94.8022Z" fill="#6D4AFF"/>
<path d="M144 80.3119V94.1575H153.668V80.9167C153.668 79.6315 154.172 78.3895 155.085 77.4823C155.988 76.5751 157.223 76.0567 158.501 76.0567H168.416C173.035 76.0567 177.471 74.2099 180.737 70.9159C184.002 67.6327 185.839 63.1723 185.839 58.5284C185.839 53.8844 184.002 49.424 180.737 46.13C177.471 42.8468 173.035 41 168.405 41H144V58.3016H153.668V50.1476H167.761C169.952 50.1476 172.047 51.0224 173.593 52.5776C175.14 54.1328 176.01 56.2388 176.01 58.442C176.01 60.6452 175.14 62.7511 173.593 64.3063C172.047 65.8615 169.952 66.7363 167.761 66.7363H157.524C155.751 66.7363 153.99 67.0819 152.357 67.7731C150.714 68.4535 149.231 69.4579 147.974 70.7215C146.718 71.9851 145.729 73.4863 145.042 75.1279C144.354 76.7587 144 78.5299 144 80.3119Z" fill="#1B1340"/>
<path d="M187.332 94.1574V73.0651C187.332 64.4575 192.327 57.6103 202.328 57.6103C203.928 57.5887 205.529 57.7615 207.097 58.1395V66.8119C205.958 66.7363 204.981 66.7363 204.519 66.7363C199.223 66.7363 196.946 69.1771 196.946 74.1235V94.1574H187.332Z" fill="#1B1340"/>
<path d="M209.975 76.2728C209.975 65.6889 217.924 57.6213 228.988 57.6213C240.052 57.6213 248.001 65.6889 248.001 76.2728C248.001 86.8568 240.052 95 228.988 95C217.924 95 209.975 86.846 209.975 76.2728ZM238.527 76.2728C238.527 70.2573 234.51 65.9913 228.988 65.9913C223.456 65.9913 219.45 70.2465 219.45 76.2728C219.45 82.364 223.467 86.5544 228.988 86.5544C234.52 86.5544 238.527 82.3532 238.527 76.2728Z" fill="#1B1340"/>
<path d="M278.744 76.2728C278.744 65.6889 286.693 57.6213 297.757 57.6213C308.81 57.6213 316.759 65.6889 316.759 76.2728C316.759 86.8568 308.81 95 297.757 95C286.693 95 278.744 86.846 278.744 76.2728ZM307.285 76.2728C307.285 70.2573 303.268 65.9913 297.746 65.9913C292.225 65.9913 288.208 70.2465 288.208 76.2728C288.208 82.364 292.225 86.5544 297.746 86.5544C303.268 86.5544 307.285 82.3532 307.285 76.2728Z" fill="#1B1340"/>
<path d="M321.754 94.1576V73.8321C321.754 64.3929 327.738 57.6105 338.415 57.6105C349.017 57.6105 355 64.3821 355 73.8321V94.1576H345.461V74.5881C345.461 69.3393 343.109 66.0561 338.415 66.0561C333.721 66.0561 331.368 69.3285 331.368 74.5881V94.1576H321.754Z" fill="#1B1340"/>
<path d="M275.865 66.0663H265.489V79.3935C265.489 84.0375 267.154 86.1651 271.923 86.1651C272.374 86.1651 273.513 86.1651 274.952 86.0895V93.9303C272.987 94.4595 271.247 94.7727 269.345 94.7727C261.321 94.7727 255.864 89.9019 255.864 80.6895V66.0663H249.419V58.3768H251.031C251.664 58.3768 252.298 58.2472 252.878 58.0096C253.469 57.7612 253.995 57.4048 254.446 56.9512C254.898 56.4976 255.252 55.9684 255.499 55.3744C255.746 54.7804 255.864 54.154 255.864 53.5168V46.27H265.478V58.3768H275.855V66.0663H275.865Z" fill="#1B1340"/>
<g clip-path="url(#clip0_10975_186759)">
<path fill-rule="evenodd" clip-rule="evenodd" d="M42.5777 110.323C46.6063 117.565 56.9516 117.957 61.5254 111.041L104.173 46.5529C108.695 39.7142 104.368 30.5453 96.1784 29.6135L12.3538 20.0757C3.41684 19.0589 -2.94633 28.4823 1.40053 36.2969L42.5777 110.323Z" fill="url(#paint0_linear_10975_186759)"/>
<path d="M44.9795 103.568L48.7644 97.9224L77.514 54.4946C80.0276 50.6977 77.6284 45.6042 73.0805 45.0821L1.73145 36.8906L38.6923 103.337C40.0412 105.715 43.4519 105.846 44.9795 103.568Z" fill="url(#paint1_linear_10975_186759)"/>
</g>
<defs>
<linearGradient id="paint0_linear_10975_186759" x1="95.8546" y1="110.318" x2="27.6489" y2="-7.30414" gradientUnits="userSpaceOnUse">
<stop offset="0.0660125" stop-color="#8EFFEE"/>
<stop offset="0.4499" stop-color="#C9C7FF"/>
<stop offset="1" stop-color="#7341FF"/>
</linearGradient>
<linearGradient id="paint1_linear_10975_186759" x1="102.091" y1="-85.0221" x2="6.57935" y2="119.269" gradientUnits="userSpaceOnUse">
<stop offset="0.4799" stop-color="#6D4AFF"/>
<stop offset="0.9944" stop-color="#00F0C3"/>
</linearGradient>
<clipPath id="clip0_10975_186759">
<rect width="106" height="96" fill="white" transform="translate(0 20)"/>
</clipPath>
</defs>
</svg>
